<svg class="lose-composition" xmlns="http://www.w3.org/2000/svg" width="480" height="420" viewBox="0 0 480 420">
  <defs>
    <filter id="lose-avatar-place-shadow" x="-20%" y="-20%" width="140%" height="140%" filterUnits="objectBoundingBox" primitiveUnits="userSpaceOnUse" color-interpolation-filters="linearRGB">
      <feDropShadow stdDeviation="8" in="SourceGraphic" dx="0" dy="10"m flood-color="#000" flood-opacity="0.5" x="0%" y="0%" width="100%" height="100%" result="dropShadow"/>
    </filter>
  </defs>
  <path fill="#1b81ab" d="M240,320.76A155.76,155.76,0,0,0,395.76,165H417A177.013,177.013,0,0,1,134.114,306.848C133.072,306.069,122,299,122,299l-1-7,7-9-19-3v-4s-9.765-3.677-10.246-4.314A176.218,176.218,0,0,1,63,165H84.24a155.036,155.036,0,0,0,24.334,83.634C109.318,249.8,108,256,108,256s4.716-1.186,5.679.147A155.555,155.555,0,0,0,240,320.76Z"/>
  <path fill="#fbb13c" d="M198,246h80v99l-41,26-39-26V246Z"/>
  <path fill="#df9d35" d="M198,236h80v99l-41,26-39-26V236Z"/>
  <path fill="#f5ad3c" d="M198,226h80v99l-41,26-39-26V226Z"/>
  <path fill="#eca638" d="M198,215h80v99l-41,26-39-26V215Z"/>
  <path fill="#aa7725" opacity="0.1" d="M237,246h41v99l-41,26V246Z"/>
  <path fill="#73d2de" d="M60,190v-1H420v1H60Z"/>
  <path fill="#ffbc52" d="M60,151v-1H420v1H60Z"/>
  <path fill="#fbb13c" d="M199.732,368.423l0.535-.846,37,25-0.535.846Zm74.534,1-0.533-.846-38,24,0.534,0.846Z"/>
  <path fill="#fbb13c" d="M246.263,391.425l-0.527-.85,30-19,0.527,0.85Z"/>
  <g>
    <path fill="#cd5a37" d="M76,159v88l-3-9v21l-5-7-4,9V159H76Z" >
      <animate repeatCount="indefinite" attributeName="d" dur="1.6s"
        values="M76,159l5,88-3-9v21l-5-7-4,9V246l-5-87H76Z;
        M76,159l-5,88-3-9v21l-5-7-4,9V246l5-87H76Z;
        M76,159l5,88-3-9v21l-5-7-4,9V246l-5-87H76Z;">
      </animate>
    </path>
  </g>
  <g>
    <path fill="#cd5a37" d="M390,158v60s-5.333-8-5-13c-1.333-.667-3,5-3,5l-3-10-2,7V158h13Z" >
    <animate repeatCount="indefinite" attributeName="d" dur="0.8s"
      values="M390,158l-5,60s-5.333-8-5-13c-1.333-.667-3,5-3,5l-3-10-2,7,5-49h13Z;
      M390,158l6,60s-5.333-8-5-13c-1.333-.667-3,5-3,5l-3-10-2,7-6-49h13Z;
      M390,158l-5,60s-5.333-8-5-13c-1.333-.667-3,5-3,5l-3-10-2,7,5-49h13Z;">
    </animate>
    </path>
  </g>
  <path fill="#9e4832" d="M107,180c6,0,5-19,5-19H92S98.251,180,107,180Z"/>
  <path fill="#eeaf4d" d="M428.826,161.274L425.791,165H59.234l-2.484-2.23L51.438,169,30,161l21.439-7,5.717,5.866L59.234,158H425.791L426,161Z"/>
  <path fill="#cd943b" d="M425.791,165H59.234l-2.484-2.23L51.438,169,30,161H429Z"/>
  <path fill="#44a9c3" d="M238.725,167.725L114.654,291.8,111,291l-1.3-4.154L234.275,162.275C233.981,162.569,238.753,167.7,238.725,167.725Z"/>
  <path fill="#0f88a6" d="M239.725,167.725L115.654,291.8l-3.333.179-1.429-1.075s62.7-62.7,126.5-126.5C239.138,164.654,240.01,167.44,239.725,167.725Z"/>
  <path fill="#44a9c3" d="M241.213,167.725L365.284,291.8l3.333,0.179-0.649,8.162,20.816,9.5-10.21-20.109-8.19.106-0.151-2.79L245.663,162.275C245.957,162.569,241.185,167.7,241.213,167.725Z"/>
  <path fill="#0f88a6" d="M240.213,167.725L364.284,291.8l3.333,0.179-0.649,8.162,20.816,9.5L369.045,290.9l-126.5-126.5C240.8,164.654,239.928,167.44,240.213,167.725Z"/>
  <path fill="#d66c3d" d="M341,180.678c23.4,0,25.481-22.649,33.28-22.649H391.96c-3.641,0-9.812,5.7-15.6,15.443C373.048,179.045,366.248,182.632,341,180.678Z"/>
  <path fill="#d66c3d" d="M77.6,172.442c5.664,7.226,16.613,7.72,34.252,7.208,5.41,1.884,13.642,1.354,28.149,1.028-23.4,0-25.481-22.649-33.28-22.649H89.04c3.641,0,9.812,5.7,15.6,15.443a12.967,12.967,0,0,0,7.2,6.176C87.477,179.6,85.392,157,77.6,157H62C65.64,157,71.75,164.979,77.6,172.442Z"/>
  <rect fill="#c28930" x="54" y="157" width="4" height="9" rx="2" ry="2"/>
  <g class="avatar-place">
    <path fill="#2190bd" fill-rule="evenodd" filter="url(#lose-avatar-place-shadow)" d="M239,29c14.259,0,28.5.218,41.395,4.33C282.244,33.919,283,40,283,40s5.761-3.7,7.179-3.125a134.012,134.012,0,0,1,17.57,8.7C308.326,45.918,310,53,310,53l-6.256,10.345s-1.33,9.031-1.55,15.744C302.083,82.464,287,89,287,89s16.422-5.956,16.95-9.65C304.829,73.2,306,65,306,65l13.637-11.53L327,61a70.567,70.567,0,0,1,2.508,9.78C329.681,72.164,337,80,337,80l6.26,14.9,17.554,8.453s1.269,2.7,1.871,4.07a134.638,134.638,0,0,1-53.53,169.162C307.593,277.528,303,275,303,275s-0.95,5.608-2.143,6.221C282.46,290.668,262.1,293,240,293c-50.815,0-95.549-25.18-118.426-66.766C120.6,224.466,126,224,126,224s-8.774-6.363-9.5-8A134.651,134.651,0,0,1,136.421,75.094C142.952,77.27,153,81,153,81s-9.216-14.012-7.858-15.348C169.42,41.748,202.238,29,239,29Z" />
    <path fill="#1f8bb7" d="M240,43c22.737,0,44,5.323,62.117,16.307,1.18,0.715,1.053,13.612.943,19.174C303.029,80.022,293,87,293,87l12-6,31,26v7l4,7s20.751,39.711,20,41c0,66.274-53.726,119-120,119S120,228.274,120,162,173.726,43,240,43Z"/>
    <circle fill="#1b769a" cx="240" cy="162" r="98"/>
  </g>
  <circle fill="#186584" cx="159" cy="311" r="3"/>
  <circle fill="#186584" cx="390" cy="236" r="3"/>
  <path fill="#eda739" d="M321,304.343L326.657,310,321,315.657,315.343,310Z"/>
  <path fill="#fdd89d" d="M321,304v6h6Z"/>
  <path fill="#c98e31" d="M316,310h5v6Z"/>
  <path fill="#eda739" d="M90.344,230.343L84.687,236l5.657,5.657L96,236Z"/>
  <path fill="#fdd89d" d="M90.344,230v6h-6Z"/>
  <path fill="#c98e31" d="M95.344,236h-5v6Z"/>
</svg>
