<svg id="Arrow_lent" data-name="Arrow &amp; lent" xmlns="http://www.w3.org/2000/svg" width="480" height="420" viewBox="0 0 480 420">
  <defs>
    <style>
      .cls-1 {
        fill: #0f83a0;
      }

      .cls-1, .cls-10, .cls-11, .cls-12, .cls-13, .cls-14, .cls-15, .cls-2, .cls-20, .cls-21, .cls-22, .cls-3, .cls-4, .cls-5, .cls-6, .cls-7, .cls-8, .cls-9 {
        fill-rule: evenodd;
      }

      .cls-2 {
        fill: #fbb13c;
      }

      .cls-3 {
        fill: #df9d35;
      }

      .cls-4 {
        fill: #f5ad3c;
      }

      .cls-5 {
        fill: #eca638;
      }

      .cls-6 {
        fill: #aa7725;
        opacity: 0.11;
      }

      .cls-7 {
        fill: #73d2de;
      }

      .cls-8 {
        fill: #ffbc52;
      }

      .cls-9 {
        fill: #cd5a37;
      }

      .cls-10 {
        fill: #9e4832;
      }

      .cls-11 {
        fill: #eeaf4d;
      }

      .cls-12 {
        fill: #cd943b;
      }

      .cls-13 {
        fill: #44a9c3;
      }

      .cls-14 {
        fill: #0f88a6;
      }

      .cls-15 {
        fill: #d66c3d;
      }

      .cls-16 {
        fill: #c28930;
      }

      .cls-17 {
        fill: #1f8bb7;
      }

      .cls-18 {
        fill: #1b81ab;
      }

      .cls-19 {
        fill: #1b769a;
      }

      .cls-20 {
        fill: #eda739;
      }

      .cls-21 {
        fill: #fdd89d;
      }

      .cls-22 {
        fill: #c98e31;
      }
    </style>
  </defs>
  <path id="Line" class="cls-1" d="M240,320.76A155.76,155.76,0,0,0,395.76,165H417a177,177,0,0,1-354,0H84.24A155.76,155.76,0,0,0,240,320.76Z"/>
  <path id="Lent" class="cls-2" d="M198,246h80v99l-41,26-39-26V246Z"/>
  <path id="Lent-2" data-name="Lent" class="cls-3" d="M198,236h80v99l-41,26-39-26V236Z"/>
  <path id="Lent-3" data-name="Lent" class="cls-4" d="M198,226h80v99l-41,26-39-26V226Z"/>
  <path id="Lent-4" data-name="Lent" class="cls-5" d="M198,215h80v99l-41,26-39-26V215Z"/>
  <path id="Lent-5" data-name="Lent" class="cls-6" d="M237,246h41v99l-41,26V246Z"/>
  <path id="Line-2" data-name="Line" class="cls-7" d="M60,190v-1H420v1H60Z"/>
  <path id="Line-3" data-name="Line" class="cls-8" d="M60,151v-1H420v1H60Z"/>
  <path id="Line-4" data-name="Line" class="cls-2" d="M199.732,368.423l0.535-.846,37,25-0.535.846Zm74.534,1-0.533-.846-38,24,0.534,0.846Z"/>
  <path id="Line-5" data-name="Line" class="cls-2" d="M246.263,391.425l-0.527-.85,30-19,0.527,0.85Z"/>
  <path id="Lent-6" data-name="Lent" class="cls-9" d="M82,158c-18,0-18-.5-18,13V298l6-5,6,5V165S85.5,158,82,158Z"/>
  <path id="Lent-7" data-name="Lent" class="cls-9" d="M399,158c18,0,18-.5,18,13V298l-6-5-6,5V165S395.5,158,399,158Z"/>
  <path id="Lent-8" data-name="Lent" class="cls-10" d="M374,180c-6,0-5-19-5-19h20S382.75,180,374,180Z"/>
  <path id="Lent-9" data-name="Lent" class="cls-10" d="M107,180c6,0,5-19,5-19H92S98.251,180,107,180Z"/>
  <path id="Arrow" class="cls-11" d="M428.561,169l-5.735-6.726L419.791,165H59.234l-2.484-2.23L51.438,169,30,161l21.439-7,5.717,5.866L59.234,158H419.791l2.6,2.333L428.561,154,450,161Z"/>
  <path id="Arrow-2" data-name="Arrow" class="cls-12" d="M428.561,169l-5.735-6.726L419.791,165H59.234l-2.484-2.23L51.438,169,30,161H450Z"/>
  <path id="Arrow-3" data-name="Arrow" class="cls-13" d="M238.725,167.725L114.654,291.8l-3.333.179,0.649,8.162-20.817,9.5,10.21-20.109,8.191,0.106,0.15-2.79L234.275,162.275C233.981,162.569,238.753,167.7,238.725,167.725Z"/>
  <path id="Arrow-4" data-name="Arrow" class="cls-14" d="M239.725,167.725L115.654,291.8l-3.333.179,0.649,8.162-20.817,9.5L110.892,290.9s62.7-62.7,126.5-126.5C239.138,164.654,240.01,167.44,239.725,167.725Z"/>
  <path id="Arrow-5" data-name="Arrow" class="cls-13" d="M241.213,167.725L365.284,291.8l3.333,0.179-0.649,8.162,20.816,9.5-10.21-20.109-8.19.106-0.151-2.79L245.663,162.275C245.957,162.569,241.185,167.7,241.213,167.725Z"/>
  <path id="Arrow-6" data-name="Arrow" class="cls-14" d="M240.213,167.725L364.284,291.8l3.333,0.179-0.649,8.162,20.816,9.5L369.045,290.9l-126.5-126.5C240.8,164.654,239.928,167.44,240.213,167.725Z"/>
  <path id="Lent-10" data-name="Lent" class="cls-15" d="M403.4,172.442c-5.665,7.226-16.613,7.72-34.252,7.208-5.41,1.884-13.642,1.354-28.149,1.028,23.4,0,25.481-22.649,33.28-22.649H391.96c-3.641,0-9.812,5.7-15.6,15.443a12.967,12.967,0,0,1-7.2,6.176C393.523,179.6,395.608,157,403.4,157H419C415.36,157,409.25,164.979,403.4,172.442Z"/>
  <path id="Lent-11" data-name="Lent" class="cls-15" d="M77.6,172.442c5.664,7.226,16.613,7.72,34.252,7.208,5.41,1.884,13.642,1.354,28.149,1.028-23.4,0-25.481-22.649-33.28-22.649H89.04c3.641,0,9.812,5.7,15.6,15.443a12.967,12.967,0,0,0,7.2,6.176C87.477,179.6,85.392,157,77.6,157H62C65.64,157,71.75,164.979,77.6,172.442Z"/>
  <rect id="Rounded_Rectangle_1" data-name="Rounded Rectangle 1" class="cls-16" x="421" y="157" width="4" height="9" rx="2" ry="2"/>
  <rect id="Rounded_Rectangle_1_copy" data-name="Rounded Rectangle 1 copy" class="cls-16" x="54" y="157" width="4" height="9" rx="2" ry="2"/>
  <circle id="Eclipse" class="cls-17" cx="239.5" cy="161.5" r="134.5"/>
  <circle id="Eclipse-2" data-name="Eclipse" class="cls-18" cx="240" cy="162" r="120"/>
  <circle id="Eclipse-3" data-name="Eclipse" class="cls-19" cx="239" cy="162.063" r="90"/>
  <path class="cls-20" d="M390,230.343L395.657,236,390,241.657,384.343,236Z"/>
  <path class="cls-21" d="M390,230v6h6Z"/>
  <path class="cls-22" d="M385,236h5v6Z"/>
  <path class="cls-20" d="M321,304.343L326.657,310,321,315.657,315.343,310Z"/>
  <path class="cls-21" d="M321,304v6h6Z"/>
  <path class="cls-22" d="M316,310h5v6Z"/>
  <path class="cls-20" d="M90.344,230.343L84.687,236l5.657,5.657L96,236Z"/>
  <path class="cls-21" d="M90.344,230v6h-6Z"/>
  <path class="cls-22" d="M95.344,236h-5v6Z"/>
  <path class="cls-20" d="M159.344,304.343L153.687,310l5.657,5.657L165,310Z"/>
  <path class="cls-21" d="M159.344,304v6h-6Z"/>
  <path class="cls-22" d="M164.344,310h-5v6Z"/>
</svg>
