<svg xmlns="http://www.w3.org/2000/svg" width="580" height="220" viewBox="0 0 580 220">
  <defs>
    <style>
      .cls-1 {
        fill: #49aad1;
      }

      .cls-1, .cls-2 {
        fill-rule: evenodd;
      }

      .cls-2 {
        fill: #6db5d3;
      }
    </style>
  </defs>
  <path id="Clouds-1_771" data-name="Clouds-1 771" class="cls-1" d="M309,120.977A34.038,34.038,0,0,1,274.946,155H160.078a34.038,34.038,0,0,1-34.053-34.023c0-.171.01-0.339,0.013-0.508H110.777a47.735,47.735,0,1,1,0-95.469h129.1a47.73,47.73,0,0,1,45.111,63.458A34.041,34.041,0,0,1,309,120.977Z"/>
  <path id="Clouds-2_1" data-name="Clouds-2 1" class="cls-2" d="M536.531,154.644H475.994a8.178,8.178,0,1,1,0,16.356H398.015a8.178,8.178,0,1,1,0-16.356H376.468a18.4,18.4,0,1,1,0-36.8H536.531A18.4,18.4,0,1,1,536.531,154.644Z"/>
</svg>
