<svg xmlns="http://www.w3.org/2000/svg" width="200" height="100" viewBox="0 0 200 100">
  <defs>
    <style>
      .cls-1 {
        fill: #5c4a35;
      }

      .cls-2 {
        fill: #766755;
      }

      .cls-3 {
        fill: #6b563f;
      }

      .cls-4 {
        fill: #6f604e;
      }

      .cls-5 {
        fill: #554431;
      }

      .cls-19, .cls-20, .cls-21, .cls-5, .cls-6 {
        fill-rule: evenodd;
      }

      .cls-6 {
        fill: #77634c;
      }

      .cls-7 {
        fill: #856f56;
      }

      .cls-8 {
        fill: #9e866b;
      }

      .cls-9 {
        fill: #7e6951;
      }

      .cls-10 {
        fill: #8f785e;
      }

      .cls-11 {
        fill: #8b755b;
      }

      .cls-12 {
        fill: #846e54;
      }

      .cls-13 {
        fill: #897258;
      }

      .cls-14 {
        fill: #9a8869;
        opacity: 0.3;
      }

      .cls-15, .cls-16 {
        fill: #3d3022;
      }

      .cls-15 {
        opacity: 0.2;
      }

      .cls-16 {
        opacity: 0.23;
      }

      .cls-17 {
        fill: #685947;
      }

      .cls-18 {
        fill: #5b4d3d;
      }

      .cls-19 {
        fill: #b39a79;
      }

      .cls-20 {
        fill: #c7ac88;
      }

      .cls-21 {
        fill: #5a4a37;
        opacity: 0.24;
      }
    </style>
  </defs>
  <path id="Brik" class="cls-1" d="M160,27h16a2,2,0,0,1,2,2V43a0,0,0,0,1,0,0H158a0,0,0,0,1,0,0V29A2,2,0,0,1,160,27Z"/>
  <path id="Brik-2" data-name="Brik" class="cls-2" d="M25,27H41a2,2,0,0,1,2,2V43a0,0,0,0,1,0,0H23a0,0,0,0,1,0,0V29A2,2,0,0,1,25,27Z"/>
  <path id="Brik-3" data-name="Brik" class="cls-2" d="M58,27H74a2,2,0,0,1,2,2V43a0,0,0,0,1,0,0H56a0,0,0,0,1,0,0V29A2,2,0,0,1,58,27Z"/>
  <path id="Brik-4" data-name="Brik" class="cls-3" d="M126,27h16a2,2,0,0,1,2,2V43a0,0,0,0,1,0,0H124a0,0,0,0,1,0,0V29A2,2,0,0,1,126,27Z"/>
  <path id="Brik-5" data-name="Brik" class="cls-4" d="M92,27h16a2,2,0,0,1,2,2V43a0,0,0,0,1,0,0H90a0,0,0,0,1,0,0V29A2,2,0,0,1,92,27Z"/>
  <path id="Balcony" class="cls-5" d="M178,52V43H160V76Z"/>
  <path id="Balcony-2" data-name="Balcony" class="cls-6" d="M23,52V43H41V76Z"/>
  <rect id="Wall" class="cls-7" x="40" y="43" width="120" height="57"/>
  <rect id="Brik-6" data-name="Brik" class="cls-8" x="40" y="43" width="40" height="20"/>
  <rect id="Brik-7" data-name="Brik" class="cls-9" x="80" y="83" width="40" height="17"/>
  <rect id="Brik-8" data-name="Brik" class="cls-10" x="120" y="83" width="40" height="17"/>
  <rect id="Brik-9" data-name="Brik" class="cls-11" x="80" y="44" width="40" height="20"/>
  <rect id="Brik-10" data-name="Brik" class="cls-12" x="120" y="44" width="40" height="20"/>
  <rect id="Brik-11" data-name="Brik" class="cls-13" x="100" y="63" width="40" height="20"/>
  <rect id="Brik-12" data-name="Brik" class="cls-13" x="40" y="83" width="39" height="17"/>
  <rect id="Colorize" class="cls-14" x="40" y="43" width="40" height="57"/>
  <rect id="Colorize-2" data-name="Colorize" class="cls-15" x="141" y="43" width="19" height="57"/>
  <rect id="Colorze" class="cls-16" x="40" y="43" width="120" height="10"/>
  <rect id="Ground" class="cls-17" x="24" y="43" width="154" height="4"/>
  <rect id="Ground-2" data-name="Ground" class="cls-18" x="40" y="96" width="120" height="4"/>
  <path id="Flag" class="cls-19" d="M136.167,77L131,82l-4.833-5L121,82l-4.833-5L111,82l-5-5-5,5-4.833-5L91,82l-4.833-5L81,82l-4.833-5L71,82l-5-5-5,5V47h80V82Z"/>
  <path id="Flag-2" data-name="Flag" class="cls-20" d="M136.167,78L131,83l-4.833-5L121,83l-4.833-5L111,83l-5-5-5,5-4.833-5L91,83l-4.833-5L81,83l-4.833-5L71,83l-5-5-5,5V79l5-5,5,5,5.167-5L81,79l5.167-5L91,79l5.167-5L101,79l5-5,5,5,5.167-5L121,79l5.167-5L131,79l5.167-5L141,79v4Z"/>
  <path id="Flag-3" data-name="Flag" class="cls-21" d="M61,47v6h80V47H61Z"/>
</svg>
